#!OML:ASF X:\für Bonn\!DataBase\2005_08_12_Daniel\c3d\Daniel.ASF
:FULLY-SPECIFIED
:DEGREES
228
root 17.9976 1.35817 0.144521 -1752.25 262.807 210.241
lowerback 54.8575 -3.86652 6.59627
upperback 19.0879 -5.63465 -5.02168
thorax -0.392065 -4.00721 -6.26197
lowerneck 9.66742 5.1979 0.456269
upperneck 11.7399 6.78474 -3.10821
head 2.24041 3.15946 -1.12656
rclavicle 1.96797e-014 -2.8625e-014
rhumerus -423.782 33.8055 254.58
rradius 54.0465
rwrist 7.85422
rhand -47.6797 754.637
rfingers 7.12502
rthumb -20.3606 725.684
lclavicle 1.96797e-014 -2.8625e-014
lhumerus -552.891 165.972 -477.219
lradius 28.3283
lwrist -16.7655
lhand -2.2076 -721.541
lfingers 7.12502
lthumb 23.4743 27.0466
rfemur -565.166 -168.661 559.244
rtibia 71.4321
rfoot 10.573 -13.9832
rtoes 28.8656
lfemur 20.9405 232.26 -16.7852
ltibia 253.738
lfoot -160.625 178.019
ltoes 33.1762
229
root 18.0468 1.37003 0.142238 -1753.47 262.64 210.397
lowerback 54.6158 -3.88302 6.57302
upperback 19.0621 -5.65175 -5.10236
thorax -0.420266 -4.00416 -6.33478
lowerneck 9.95461 5.15529 0.360747
upperneck 11.5004 6.70104 -2.89728
head 2.09846 3.12545 -1.05191
rclavicle 5.84427e-014 1.35969e-013
rhumerus -423.631 33.6607 254.771
rradius 54.2046
rwrist 7.58663
rhand -47.7846 754.079
rfingers 7.12502
rthumb -20.4614 725.137
lclavicle 5.84427e-014 1.35969e-013
lhumerus -552.725 166.584 -477.627
lradius 28.6952
lwrist -16.9485
lhand -3.24079 -721.433
lfingers 7.12502
lthumb 22.4829 27.2778
rfemur -564.04 -169.598 559.095
rtibia 70.3549
rfoot 10.3605 -14.4385
rtoes 28.8504
lfemur 20.8085 231.157 -16.9378
ltibia 254.211
lfoot -160.785 179.167
ltoes 32.9913
230
root 18.0959 1.38292 0.14028 -1754.57 262.462 210.424
lowerback 54.4019 -3.89353 6.53807
upperback 19.0215 -5.66553 -5.19226
thorax -0.467201 -3.99929 -6.41168
lowerneck 10.2344 5.11292 0.270096
upperneck 11.2721 6.61762 -2.66579
head 1.9622 3.09122 -0.971565
rclavicle 1.78906e-015 1.15295e-014
rhumerus -423.538 33.5341 254.912
rradius 54.3734
rwrist 7.51993
rhand -47.8938 753.734
rfingers 7.12502
rthumb -20.5664 724.803
lclavicle 1.78906e-015 1.15295e-014
lhumerus -552.586 167.192 -478.029
lradius 29.1
lwrist -16.8948
lhand -4.22801 -721.435
lfingers 7.12502
lthumb 21.535 27.3876
rfemur -562.967 -170.411 558.935
rtibia 69.334
rfoot 10.1308 -14.7172
rtoes 28.6873
lfemur 20.6065 230.061 -17.0374
ltibia 254.702
lfoot -161.153 180.186
ltoes 32.8511
231
root 18.1441 1.3963 0.138979 -1755.74 262.3 210.516
lowerback 54.2153 -3.90004 6.50256
upperback 18.9883 -5.67783 -5.2826
thorax -0.507138 -3.99571 -6.48943
lowerneck 10.4779 5.07197 0.226003
upperneck 11.0605 6.5452 -2.48706
head 1.84273 3.06252 -0.91497
rclavicle 3.81667e-014 6.79844e-014
rhumerus -423.373 33.3671 255.096
rradius 54.4752
rwrist 7.63522
rhand -47.905 753.803
rfingers 7.12502
rthumb -20.5771 724.873
lclavicle 3.81667e-014 6.79844e-014
lhumerus -552.454 167.861 -478.432
lradius 29.5933
lwrist -16.4664
lhand -5.07648 -721.389
lfingers 7.12502
lthumb 20.7199 27.5248
rfemur -561.905 -171.122 558.798
rtibia 68.3584
rfoot 9.84474 -14.8409
rtoes 28.6807
lfemur 20.456 228.964 -17.0939
ltibia 255.183
lfoot -161.752 181.25
ltoes 32.6068
232
root 18.1944 1.41101 0.138219 -1756.73 262.151 210.428
lowerback 54.0352 -3.91427 6.45609
upperback 18.9397 -5.70225 -5.36003
thorax -0.563877 -3.9999 -6.54188
lowerneck 10.7197 5.04324 0.145295
upperneck 10.896 6.48547 -2.31447
head 1.7391 3.03654 -0.854136
rclavicle -1.15295e-014 -8.46823e-014
rhumerus -423.216 33.194 255.283
rradius 54.5537
rwrist 7.88814
rhand -47.7814 754.049
rfingers 7.12502
rthumb -20.4583 725.107
lclavicle -1.15295e-014 -8.46823e-014
lhumerus -552.349 168.414 -478.768
lradius 30.1497
lwrist -15.7552
lhand -5.87893 -721.383
lfingers 7.12502
lthumb 19.9487 27.6132
rfemur -560.881 -171.701 558.643
rtibia 67.4235
rfoot 9.59972 -14.8247
rtoes 28.6083
lfemur 20.3805 227.832 -17.1714
ltibia 255.663
lfoot -162.696 182.317
ltoes 32.1471
233
root 18.243 1.42514 0.138152 -1757.58 262.001 210.202
lowerback 53.8407 -3.92227 6.38886
upperback 18.922 -5.73614 -5.44167
thorax -0.585828 -4.01213 -6.58868
lowerneck 10.8479 5.00866 0.139337
upperneck 10.8022 6.4326 -2.2085
head 1.68269 3.01424 -0.823194
rclavicle -3.77691e-014 -1.23246e-014
rhumerus -423.016 33.0912 255.448
rradius 54.5823
rwrist 8.16965
rhand -47.6148 754.417
rfingers 7.12502
rthumb -20.2983 725.458
lclavicle -3.77691e-014 -1.23246e-014
lhumerus -552.211 168.951 -479.086
lradius 30.7251
lwrist -14.7274
lhand -6.61613 -721.427
lfingers 7.12502
lthumb 19.24 27.641
rfemur -559.881 -172.2 558.477
rtibia 66.5325
rfoot 9.28323 -14.6948
rtoes 28.6748
lfemur 20.1495 226.705 -17.121
ltibia 256.162
lfoot -164.082 183.077
ltoes 31.5965
234
root 18.2903 1.43994 0.138137 -1758.53 261.863 210.044
lowerback 53.6684 -3.91692 6.32515
upperback 18.8932 -5.74856 -5.50758
thorax -0.616691 -4.01424 -6.62723
lowerneck 10.9527 4.97627 0.1392
upperneck 10.7817 6.38267 -2.09296
head 1.65393 2.99164 -0.788933
rclavicle -1.78906e-014 7.15625e-015
rhumerus -422.84 32.9628 255.606
rradius 54.6088
rwrist 8.43815
rhand -47.3203 754.68
rfingers 7.12502
rthumb -20.0152 725.691
lclavicle -1.78906e-014 7.15625e-015
lhumerus -552.037 169.516 -479.338
lradius 31.2898
lwrist -13.4415
lhand -7.32114 -721.384
lfingers 7.12502
lthumb 18.5619 27.7502
rfemur -558.873 -172.656 558.338
rtibia 65.6577
rfoot 8.89484 -14.5074
rtoes 28.8783
lfemur 19.7816 225.591 -16.911
ltibia 256.674
lfoot -165.823 183.545
ltoes 31.1147
235
root 18.3378 1.45383 0.138528 -1759.13 261.718 209.585
lowerback 53.435 -3.91384 6.22905
upperback 18.8831 -5.78391 -5.59126
thorax -0.626547 -4.02854 -6.66398
lowerneck 10.9868 4.9378 0.206953
upperneck 10.8136 6.33702 -2.04918
head 1.65873 2.97169 -0.786095
rclavicle -8.74653e-015 -6.08281e-014
rhumerus -422.687 32.8436 255.726
rradius 54.6291
rwrist 8.76165
rhand -47.0535 754.603
rfingers 7.12502
rthumb -19.7587 725.587
lclavicle -8.74653e-015 -6.08281e-014
lhumerus -551.93 169.94 -479.594
lradius 32.0111
lwrist -12.0542
lhand -7.90739 -721.357
lfingers 7.12502
lthumb 17.9979 27.8305
rfemur -557.931 -173.056 558.155
rtibia 64.8085
rfoot 8.42942 -14.3423
rtoes 29.2153
lfemur 19.5051 224.408 -16.8046
ltibia 257.198
lfoot -167.761 183.75
ltoes 30.6548
